<svg width="40" height="40" viewBox="0 0 40 40" fill="none" xmlns="http://www.w3.org/2000/svg">
<path d="M25.8593 29.248H30.5468V33.9153H25.8593V29.248Z" fill="#E4682B"/>
<path d="M9.45323 29.248H18.8282V33.9153H9.45323V29.248Z" fill="#E4682B"/>
<path d="M0 36.2491C0 38.1793 1.57703 39.8273 3.51562 39.8273H36.4844C38.423 39.8273 40 38.1793 40 36.2491V11.668H0V36.2491ZM32.8906 35.0822C32.8906 35.7272 32.3665 36.2491 31.7188 36.2491H24.6875C24.0398 36.2491 23.5156 35.7272 23.5156 35.0822V28.0813C23.5156 27.4363 24.0398 26.9145 24.6875 26.9145H31.7188C32.3665 26.9145 32.8906 27.4363 32.8906 28.0813V35.0822ZM7.10938 16.4131C7.10938 15.7681 7.63352 15.2462 8.28125 15.2462H31.7188C32.3665 15.2462 32.8906 15.7681 32.8906 16.4131V23.414C32.8906 24.0589 32.3665 24.5808 31.7188 24.5808H8.28125C7.63352 24.5808 7.10938 24.0589 7.10938 23.414V16.4131ZM7.10938 28.0813C7.10938 27.4363 7.63352 26.9145 8.28125 26.9145H20C20.6477 26.9145 21.1719 27.4363 21.1719 28.0813V35.0822C21.1719 35.7272 20.6477 36.2491 20 36.2491H8.28125C7.63352 36.2491 7.10938 35.7272 7.10938 35.0822V28.0813Z" fill="#E4682B"/>
<path d="M9.45323 17.5801H30.547V22.2474H9.45323V17.5801Z" fill="#E4682B"/>
<path d="M36.4844 0H3.51562C1.57703 0 0 1.57023 0 3.50047V9.33459H40V3.50047C40 1.57023 38.423 0 36.4844 0ZM8.28125 5.83412C7.63406 5.83412 7.10938 5.31169 7.10938 4.6673C7.10938 4.02274 7.63406 3.50047 8.28125 3.50047C8.92844 3.50047 9.45312 4.02274 9.45312 4.6673C9.45312 5.31169 8.92844 5.83412 8.28125 5.83412ZM12.9688 5.83412C12.3216 5.83412 11.7969 5.31169 11.7969 4.6673C11.7969 4.02274 12.3216 3.50047 12.9688 3.50047C13.6159 3.50047 14.1406 4.02274 14.1406 4.6673C14.1406 5.31169 13.6159 5.83412 12.9688 5.83412ZM17.6562 5.83412C17.0091 5.83412 16.4844 5.31169 16.4844 4.6673C16.4844 4.02274 17.0091 3.50047 17.6562 3.50047C18.3034 3.50047 18.8281 4.02274 18.8281 4.6673C18.8281 5.31169 18.3034 5.83412 17.6562 5.83412Z" fill="#E4682B"/>
</svg>
