<svg xmlns="http://www.w3.org/2000/svg" xmlns:xlink="http://www.w3.org/1999/xlink" viewBox="0 0 2652.69 734.2"><defs><style>.cls-1{fill:url(#linear-gradient);}.cls-2{fill:#fff;}.cls-3{fill:#202c39;}</style><linearGradient id="linear-gradient" x1="401.72" y1="-8.25" x2="414.43" y2="696.92" gradientUnits="userSpaceOnUse"><stop offset="0" stop-color="#ff925c"/><stop offset="1" stop-color="#e55812"/></linearGradient></defs><g id="Layer_2" data-name="Layer 2"><g id="Layer_1-2" data-name="Layer 1"><path class="cls-1" d="M817,110.44V533.75A110.45,110.45,0,0,1,706.52,644.2L533,670.4,409.67,689,110.45,734.2A110.45,110.45,0,0,1,0,623.75V110.44A110.45,110.45,0,0,1,110.45,0H706.52A110.45,110.45,0,0,1,817,110.44Z"/><path class="cls-2" d="M610.41,154.75a36.71,36.71,0,0,1-.86,6c-2.28,13.52-4.77,27-6.81,40.57Q588.39,297.13,574.21,393,560.8,483.33,547.4,573.69,540.2,622.05,533,670.4L409.67,689q-109.08-37.26-219-74.94L487.05,256.92l-1-1c-1.37,1-2.83,1.83-4.1,2.92Q295,418.68,108.1,578.68c-4.61,4-8.28,4.63-14,2.64Q47.07,565,0,549V435.69q287.42-150,574.76-300.1c2.4-1.26,4.79-2.56,7.18-3.83a16.35,16.35,0,0,1,11,0,23.31,23.31,0,0,1,17.28,16.56A36.66,36.66,0,0,1,610.41,154.75Z"/><path class="cls-3" d="M1020.77,300.27V68.93H1093l64.54,155.37h1.14L1223,68.93h72V300.27h-53.7V146.62h-1.14l-60.83,153.65H1133l-60.83-153.65H1071V300.27Z"/><path class="cls-3" d="M1392.33,303.41q-30.84,0-48.12-14.71t-17.28-39.27q0-25.41,18.13-39.27t51.84-13.85h46V190q0-23.42-29.7-23.42-26.28,0-32,17.71h-52q6-29.13,27.14-44t56.55-14.85q39.12,0,59.69,17.28t20.56,50.41v55.69h24.56v51.41h-52.55V271.71h-12a61.23,61.23,0,0,1-23.42,23.56Q1415.19,303.41,1392.33,303.41Zm8-39.41a53.77,53.77,0,0,0,22.13-4.28,36.66,36.66,0,0,0,15-11.71,27.45,27.45,0,0,0,5.42-16.57v-.86h-43.69q-22,0-22,16.28,0,8.29,6.14,12.71T1400.33,264Z"/><path class="cls-3" d="M1567.69,114.34a28.27,28.27,0,0,1-28.27-28.27,28.28,28.28,0,0,1,56.55,0,28.29,28.29,0,0,1-28.28,28.27Zm-26.27,185.93V128.91H1594V300.27Z"/><path class="cls-3" d="M1630,300.27V60.36h52.55V300.27Z"/><path class="cls-3" d="M1115,609.86q-47.41,0-75.55-20.71t-30.7-57.83h54.84q3.14,18,16.56,26.85T1117,567q21.12,0,31.55-6.43T1159,541.32q0-10-6.43-15.57T1131.3,517l-48.84-10.28q-33.14-7.14-49.13-23.14t-16-42q0-32.83,25-51.41t68.12-18.56q43.41,0,70,19.42t29.42,54.26H1155q-8-32.55-47.69-32.56-17.43,0-27.42,6.14t-10,17.57q0,17.13,24.56,22.28l51.13,10.56q34.55,7.16,50.26,23.42T1211.55,537q0,34.56-25,53.7T1115,609.86Z"/><path class="cls-3" d="M1265,420.51a28.29,28.29,0,1,1,20-8.29A27.23,27.23,0,0,1,1265,420.51Zm-26.28,185.92V435.07h52.55V606.43Z"/><path class="cls-3" d="M1411.76,678.41q-39.71,0-64.41-15.85t-29.27-44.13h55.41q6.55,18.86,36.27,18.85,20.84,0,31.84-9.43t11-26.84V579.59h-1.43a51.93,51.93,0,0,1-21,20.13q-13,6.72-31.56,6.71-24,0-41.84-10.71a72.23,72.23,0,0,1-27.71-30.41q-9.84-19.71-9.85-46.27,0-40,22.13-63.69t61.27-23.71q21.69,0,37.27,8.43a63.92,63.92,0,0,1,24.7,23.56h12V435.07h52.55v51.41h-25.71V601q0,37.13-23.7,57.26T1411.76,678.41Zm0-117.67q18.56,0,28.84-10t10.28-27.7v-8.57q0-17.42-10.42-27.28t-28.7-9.85q-19.14,0-29.56,11t-10.43,31q0,20,10.43,30.71T1411.76,560.74Z"/><path class="cls-3" d="M1566.26,606.43V486.48h-25.7V435.07h52.55v28.56h12a75.57,75.57,0,0,1,25.27-23.28q15-8.42,38.42-8.42,36.56,0,56.12,19.71t19.56,52.83v102h-52.55V514.76q0-17.72-9.28-26.85t-27.28-9.14q-18,0-27.27,9.14t-9.28,26.85v91.67Z"/><path class="cls-3" d="M1835,609.58q-30.86,0-48.13-14.71t-17.28-39.27q0-25.43,18.14-39.27t51.84-13.86h46v-6.28q0-23.42-29.71-23.42-26.27,0-32,17.71h-52q6-29.13,27.13-44t56.55-14.86q39.12,0,59.69,17.28t20.56,50.41V555h24.57v51.41h-52.56V577.87h-12a61.25,61.25,0,0,1-23.42,23.57Q1857.87,609.57,1835,609.58Zm8-39.42a53.82,53.82,0,0,0,22.14-4.28,36.69,36.69,0,0,0,15-11.71,27.4,27.4,0,0,0,5.43-16.57v-.85h-43.7q-22,0-22,16.28,0,8.28,6.14,12.71T1843,570.16Z"/><path class="cls-3" d="M2041.79,606.43q-20,0-31-10.14t-11-31V476.2h-28.57V435.07h29.14V383.66h51.41v51.41h37.7V476.2h-37.13v89.11h41.12v41.12Z"/><path class="cls-3" d="M2202,609.86q-28.28,0-49.41-11a78.65,78.65,0,0,1-32.7-31.13q-11.57-20.13-11.57-47.26t11.57-47.13a78.17,78.17,0,0,1,32.7-30.84q21.14-10.86,49.7-10.86t49.26,10.86a77.8,77.8,0,0,1,32.13,30.84q11.43,20,11.43,47.41,0,27.13-11.43,47.27a77.35,77.35,0,0,1-32.27,31Q2230.57,609.87,2202,609.86Zm0-45.7q19.71,0,30.13-11.85t10.43-31.84q0-20-10.43-31.56T2202,477.34q-20,0-30.56,11.57t-10.57,31.56q0,20,10.57,31.84T2202,564.16Z"/><path class="cls-3" d="M2336.81,606.43V486.48h-25.7V435.07h52.55v34.27h12q6.56-18.55,21.42-27.56a62.63,62.63,0,0,1,33.13-9h14.56v45.69h-16.85q-21.14,0-30.41,11.71t-9.29,30.56v85.68Z"/><path class="cls-3" d="M2477.9,675V632.71h36.56l11.71-28.28-72.83-169.36H2509l44.55,109.39h1.15l43.69-109.39h54.27L2579,606.43,2566.15,637q-7.71,18.28-18.42,28.14T2516.17,675Z"/></g></g></svg>